<svg width="512" height="512" viewBox="0 0 100 100" fill="none" xmlns="http://www.w3.org/2000/svg">
  <!-- Core Essence - Off-center organic solid -->
  <path
    d="M48 28C38 30 32 38 34 48C36 58 44 64 54 62C64 60 70 52 68 42"
    fill="#000000"
    opacity="0.9"
  />
  
  <!-- Inner Ripple - Thin organic line -->
  <path
    d="M28 22C18 30 14 45 18 60C22 75 35 84 50 84C65 84 78 75 82 60"
    stroke="#000000"
    stroke-width="1.5"
    stroke-linecap="round"
  />

  <!-- Outer Field - Expanding consciousness -->
  <path
    d="M60 18C75 18 85 25 90 35M20 18C10 25 5 40 5 55"
    stroke="#000000"
    stroke-width="0.8"
    stroke-linecap="round"
    opacity="0.8"
  />

   <!-- Abstract Data Point - Precision -->
   <circle cx="72" cy="38" r="2" fill="#000000" />
</svg>
